<svg width="43" height="53" viewBox="0 0 43 53" fill="none" xmlns="http://www.w3.org/2000/svg">
<g filter="url(#filter0_d_35_25)">
<path d="M21.3164 0C16.7238 0 12.3193 1.89642 9.07184 5.27206C5.8244 8.6477 4 13.2261 4 17.9999C4 30.1499 19.2601 43.8749 19.9094 44.4599C20.3015 44.8084 20.8004 45 21.3164 45C21.8323 45 22.3313 44.8084 22.7233 44.4599C23.4809 43.8749 38.6327 30.1499 38.6327 17.9999C38.6327 13.2261 36.8083 8.6477 33.5609 5.27206C30.3134 1.89642 25.909 0 21.3164 0ZM21.3164 39.7124C16.7059 35.2124 8.32909 25.5149 8.32909 17.9999C8.32909 14.4195 9.69738 10.9858 12.133 8.45403C14.5686 5.9223 17.8719 4.49999 21.3164 4.49999C24.7608 4.49999 28.0642 5.9223 30.4997 8.45403C32.9353 10.9858 34.3036 14.4195 34.3036 17.9999C34.3036 25.5149 25.9268 35.2349 21.3164 39.7124ZM21.3164 8.99997C19.6039 8.99997 17.93 9.52781 16.5062 10.5167C15.0823 11.5057 13.9726 12.9113 13.3173 14.5558C12.6619 16.2003 12.4905 18.0099 12.8245 19.7557C13.1586 21.5016 13.9833 23.1052 15.1941 24.3639C16.405 25.6225 17.9477 26.4797 19.6272 26.827C21.3068 27.1742 23.0476 26.996 24.6297 26.3148C26.2118 25.6336 27.564 24.4801 28.5154 23.0001C29.4667 21.52 29.9745 19.78 29.9745 17.9999C29.9745 15.613 29.0623 13.3238 27.4386 11.636C25.8149 9.94818 23.6127 8.99997 21.3164 8.99997ZM21.3164 22.4999C20.4602 22.4999 19.6232 22.236 18.9113 21.7415C18.1993 21.2471 17.6445 20.5443 17.3168 19.722C16.9892 18.8997 16.9034 17.9949 17.0705 17.122C17.2375 16.2491 17.6498 15.4473 18.2552 14.818C18.8607 14.1886 19.632 13.7601 20.4718 13.5864C21.3116 13.4128 22.182 13.5019 22.973 13.8425C23.7641 14.1831 24.4402 14.7599 24.9159 15.4999C25.3916 16.2399 25.6455 17.1099 25.6455 17.9999C25.6455 19.1934 25.1894 20.338 24.3775 21.1819C23.5656 22.0258 22.4645 22.4999 21.3164 22.4999Z" fill="#FF9D00"/>
</g>
<defs>
<filter id="filter0_d_35_25" x="0" y="0" width="42.6327" height="53" filterUnits="userSpaceOnUse" color-interpolation-filters="sRGB">
<feFlood flood-opacity="0" result="BackgroundImageFix"/>
<feColorMatrix in="SourceAlpha" type="matrix" values="0 0 0 0 0 0 0 0 0 0 0 0 0 0 0 0 0 0 127 0" result="hardAlpha"/>
<feOffset dy="4"/>
<feGaussianBlur stdDeviation="2"/>
<feComposite in2="hardAlpha" operator="out"/>
<feColorMatrix type="matrix" values="0 0 0 0 0 0 0 0 0 0 0 0 0 0 0 0 0 0 0.25 0"/>
<feBlend mode="normal" in2="BackgroundImageFix" result="effect1_dropShadow_35_25"/>
<feBlend mode="normal" in="SourceGraphic" in2="effect1_dropShadow_35_25" result="shape"/>
</filter>
</defs>
</svg>
