<svg width="53" height="50" viewBox="0 0 53 50" fill="none" xmlns="http://www.w3.org/2000/svg">
<g filter="url(#filter0_d_35_29)">
<path fill-rule="evenodd" clip-rule="evenodd" d="M23.8084 31.748L30.0697 25.9039C31.433 24.6314 33.2768 23.8988 35.2048 23.8785C37.1359 23.8584 38.9943 24.5557 40.3607 25.8311L47.8006 32.775C49.3998 34.2676 49.3998 36.6872 47.8006 38.1798C44.7084 41.0659 40.293 42.5579 35.8961 41.8075C34.2061 41.519 32.3795 41.1623 31.0877 40.7724C28.833 40.0922 26.4686 39.359 22.4963 36.4106C20.6918 35.0712 18.5628 33.2816 15.9519 30.8448C13.341 28.408 11.4237 26.421 9.9886 24.7368C6.82954 21.0293 6.04418 18.8225 5.31529 16.7182C4.89759 15.5124 4.5153 13.8075 4.20626 12.2301C3.40228 8.12655 5.00079 4.00548 8.09312 1.11933C9.69216 -0.373111 12.2847 -0.373111 13.8838 1.11933L21.3239 8.06334C22.6903 9.33871 23.4375 11.0731 23.416 12.8754C23.3941 14.675 22.6092 16.3959 21.2456 17.6683L14.9844 23.5122C16.1081 24.7214 17.5064 26.119 19.2609 27.7566C21.0153 29.3939 22.5128 30.6992 23.8084 31.748ZM12.0917 20.0353L17.9368 14.58C18.446 14.1047 18.7288 13.471 18.7365 12.8263C18.7443 12.1842 18.4794 11.5853 18.0148 11.1517L11.0008 4.60524C9.1649 6.53633 8.3417 9.05685 8.8095 11.4445C9.11626 13.0102 9.45347 14.4668 9.76794 15.3747L9.79152 15.4429C10.2589 16.7924 10.7099 18.0952 12.0917 20.0353ZM27.5334 34.4478C29.6123 35.7374 31.0078 36.1584 32.4541 36.5946C32.4784 36.6019 32.5028 36.6092 32.5271 36.6165C33.4998 36.91 35.0606 37.2247 36.7381 37.5112C39.2963 37.9477 41.9967 37.1793 44.0657 35.466L37.0516 28.9196C36.5871 28.486 35.9454 28.2385 35.2575 28.2458C34.5668 28.2531 33.8879 28.5172 33.3785 28.9923L27.5334 34.4478Z" fill="#42B132"/>
</g>
<defs>
<filter id="filter0_d_35_29" x="0" y="0" width="53" height="50" filterUnits="userSpaceOnUse" color-interpolation-filters="sRGB">
<feFlood flood-opacity="0" result="BackgroundImageFix"/>
<feColorMatrix in="SourceAlpha" type="matrix" values="0 0 0 0 0 0 0 0 0 0 0 0 0 0 0 0 0 0 127 0" result="hardAlpha"/>
<feOffset dy="4"/>
<feGaussianBlur stdDeviation="2"/>
<feComposite in2="hardAlpha" operator="out"/>
<feColorMatrix type="matrix" values="0 0 0 0 0 0 0 0 0 0 0 0 0 0 0 0 0 0 0.25 0"/>
<feBlend mode="normal" in2="BackgroundImageFix" result="effect1_dropShadow_35_29"/>
<feBlend mode="normal" in="SourceGraphic" in2="effect1_dropShadow_35_29" result="shape"/>
</filter>
</defs>
</svg>
