<svg width="50" height="53" viewBox="0 0 50 53" fill="none" xmlns="http://www.w3.org/2000/svg">
<g filter="url(#filter0_d_35_27)">
<path fill-rule="evenodd" clip-rule="evenodd" d="M38.4163 40.5H11.1444C9.67654 40.5 8.59261 38.9317 9.14624 37.4894C11.715 30.8204 17.7497 27 24.7793 27C31.811 27 37.8457 30.8204 40.4145 37.4894C40.9681 38.9317 39.8842 40.5 38.4163 40.5ZM16.2946 13.5C16.2946 8.53647 20.1021 4.49997 24.7793 4.49997C29.4586 4.49997 33.264 8.53647 33.264 13.5C33.264 18.4635 29.4586 22.5 24.7793 22.5C20.1021 22.5 16.2946 18.4635 16.2946 13.5ZM45.4671 39.6809C43.925 32.1232 39.1015 26.5454 32.7528 24.0142C36.117 21.1409 38.079 16.4946 37.3579 11.4073C36.5221 5.5056 31.8937 0.782948 26.3065 0.0944478C18.594 -0.857302 12.0522 5.51022 12.0522 13.5C12.0522 17.7525 13.9104 21.5414 16.8079 24.0142C10.4571 26.5454 5.63569 32.1232 4.09148 39.6809C3.53149 42.4282 5.61873 45 8.26807 45H41.2905C43.942 45 46.0292 42.4282 45.4671 39.6809Z" fill="#009CDA"/>
</g>
<defs>
<filter id="filter0_d_35_27" x="0" y="0" width="49.5592" height="53" filterUnits="userSpaceOnUse" color-interpolation-filters="sRGB">
<feFlood flood-opacity="0" result="BackgroundImageFix"/>
<feColorMatrix in="SourceAlpha" type="matrix" values="0 0 0 0 0 0 0 0 0 0 0 0 0 0 0 0 0 0 127 0" result="hardAlpha"/>
<feOffset dy="4"/>
<feGaussianBlur stdDeviation="2"/>
<feComposite in2="hardAlpha" operator="out"/>
<feColorMatrix type="matrix" values="0 0 0 0 0 0 0 0 0 0 0 0 0 0 0 0 0 0 0.25 0"/>
<feBlend mode="normal" in2="BackgroundImageFix" result="effect1_dropShadow_35_27"/>
<feBlend mode="normal" in="SourceGraphic" in2="effect1_dropShadow_35_27" result="shape"/>
</filter>
</defs>
</svg>
