<svg width="54" height="54" viewBox="0 0 54 54" fill="none" xmlns="http://www.w3.org/2000/svg">
<g filter="url(#filter0_d_35_31)">
<path fill-rule="evenodd" clip-rule="evenodd" d="M27 3.83333C16.4145 3.83333 7.83333 12.4145 7.83333 23C7.83333 28.9511 10.5434 34.268 14.8038 37.7864L15.5 38.3612V42.1667H27C37.5854 42.1667 46.1667 33.5854 46.1667 23C46.1667 12.4145 37.5854 3.83333 27 3.83333ZM4 23C4 10.2975 14.2975 0 27 0C39.7026 0 50 10.2975 50 23C50 35.7026 39.7026 46 27 46H11.6667V40.1434C6.96404 35.9344 4 29.8126 4 23ZM28.9167 30.6667V34.5H25.0833V30.6667H28.9167ZM23.1667 18.9924C23.1667 17.0267 24.827 15.3333 27 15.3333C29.173 15.3333 30.8333 17.0267 30.8333 18.9924C30.8333 19.7774 30.3608 20.7079 29.3194 21.7629C28.31 22.7856 27.0266 23.6627 25.9594 24.3524L25.0833 24.919V28.75H28.9167V26.9925C29.8908 26.3299 31.0449 25.4715 32.0477 24.4556C33.3424 23.1441 34.6667 21.2868 34.6667 18.9924C34.6667 14.7993 31.1781 11.5 27 11.5C22.8219 11.5 19.3333 14.7993 19.3333 18.9924H23.1667Z" fill="#E71E07"/>
</g>
<defs>
<filter id="filter0_d_35_31" x="0" y="0" width="54" height="54" filterUnits="userSpaceOnUse" color-interpolation-filters="sRGB">
<feFlood flood-opacity="0" result="BackgroundImageFix"/>
<feColorMatrix in="SourceAlpha" type="matrix" values="0 0 0 0 0 0 0 0 0 0 0 0 0 0 0 0 0 0 127 0" result="hardAlpha"/>
<feOffset dy="4"/>
<feGaussianBlur stdDeviation="2"/>
<feComposite in2="hardAlpha" operator="out"/>
<feColorMatrix type="matrix" values="0 0 0 0 0 0 0 0 0 0 0 0 0 0 0 0 0 0 0.25 0"/>
<feBlend mode="normal" in2="BackgroundImageFix" result="effect1_dropShadow_35_31"/>
<feBlend mode="normal" in="SourceGraphic" in2="effect1_dropShadow_35_31" result="shape"/>
</filter>
</defs>
</svg>
