<svg width="102" height="64" viewBox="0 0 102 64" fill="none" xmlns="http://www.w3.org/2000/svg">
<g filter="url(#filter0_d_78_51)">
<mask id="path-1-inside-1_78_51" fill="white">
<path d="M4.73926 7.70577C4.73926 4.55666 7.11432 3.3161 10.0357 3.14911L23.6375 3.23128C24.4584 3.23128 25.1887 3.72962 25.4633 4.47449C28.5687 13.5878 32.4015 19.2207 36.9676 25.5984C37.2422 26.0968 37.6979 26.3433 38.1537 26.3433C38.5188 26.3433 38.884 26.1763 39.1586 25.7628L39.4332 24.8509L39.5238 10.5209C39.5238 8.45063 38.4283 8.11929 35.8721 7.78794C34.8672 7.62094 34.2274 6.7939 34.2274 5.96422C34.2274 5.79722 34.2274 5.63287 34.3179 5.46587C35.5975 1.90325 39.6144 0.082174 45.273 0.082174L50.3854 0C54.5863 0 58.4191 1.65673 58.4191 6.54473V25.3492C58.7843 25.5984 59.1494 25.7628 59.6052 25.7628C60.3355 25.7628 61.2499 25.3492 61.9802 24.2704C66.7274 18.224 72.1144 11.0166 72.8447 7.20477C72.8447 7.03777 72.9353 6.9556 73.0288 6.79125C74.0337 4.96753 76.5899 3.72697 77.6854 3.39563C77.8695 3.31345 78.1411 3.22863 78.5063 3.22863H92.6573L93.5717 3.3108C94.9418 3.3108 95.9468 4.14049 96.4025 4.88535C97.2234 6.04639 97.0423 7.28695 97.1328 7.78529V8.36581C95.7627 15.9046 86.2683 24.3526 82.2515 29.8211C81.7023 30.4838 81.4306 31.0643 81.4306 31.6448C81.4306 32.1431 81.7052 32.6388 82.1609 33.1372L95.491 48.3791C96.2214 49.2909 96.5866 50.3671 96.5866 51.279C96.5866 54.0119 93.7558 55.5865 91.0185 55.8357L89.4672 55.9178H75.5908C75.3162 55.9178 75.1351 56 74.8605 56C73.3092 56 72.0297 55.2551 71.1182 54.4254C68.1969 51.1942 65.3661 47.8807 62.5353 44.6494C61.9861 43.9867 61.8049 43.9046 61.2557 43.5732C60.6159 45.9748 60.0697 48.4612 59.4299 50.945L59.1553 52.3526C58.6995 53.8449 57.5106 55.4168 55.3195 55.833L54.04 55.9152H45.0919C29.2991 55.9152 15.148 35.5361 5.19791 10.1074C4.9233 9.44467 4.74218 8.5328 4.74218 7.70577H4.73926ZM59.6052 29.161C57.2301 29.161 54.5834 27.9178 54.5834 25.5984V6.54473C54.5834 4.30749 53.4879 3.48045 50.4759 3.48045L45.273 3.64745C42.3517 3.64745 40.7069 4.06097 39.3397 4.89066C41.4402 5.80252 43.3566 7.04573 43.3566 10.5235V25.1027C43.082 28.0026 40.4353 29.9085 37.8791 29.9085C36.1438 29.9085 34.5926 28.9967 33.6782 27.507C29.5707 21.8741 26.1002 16.5726 23.0883 8.95163L22.2674 6.79655L10.1262 6.71438C8.48151 6.71438 8.66555 6.79655 8.66555 7.54407C8.66555 8.04241 8.75612 8.7051 8.8496 9.11862L10.766 13.7575C20.7161 37.1186 33.2254 52.4427 45.0919 52.4427H54.2211C55.5007 52.4427 55.4072 51.0351 55.6818 50.2054L57.4171 42.9158C57.7822 42.171 58.0568 41.5083 58.6966 40.9278C59.427 40.2651 60.2479 40.0159 61.0717 40.0159C62.807 40.0159 64.4488 41.2591 65.5443 42.4175L73.3034 51.3638C73.9432 52.2757 74.4894 52.44 74.8546 52.44H89.9171C91.3778 52.44 92.6573 52.0265 92.6573 51.1968C92.6573 50.9476 92.5668 50.6163 92.3827 50.3671L79.1461 35.3744C78.0506 34.1312 77.5948 32.888 77.5948 31.6474C77.5948 30.3221 78.1441 28.9967 79.0555 27.8357C82.8913 22.6163 91.1061 15.1624 93.0225 9.03115L93.2971 7.95494C93.2065 7.54142 93.2065 7.21007 93.1131 6.7939H78.7809C77.8665 7.12525 77.1362 7.62359 76.5899 8.28628L76.0407 9.86084C73.9402 15.1624 68.1881 22.452 64.0807 27.5043C62.7106 28.6653 61.1564 29.161 59.6052 29.161Z"/>
</mask>
<path d="M4.73926 7.70577C4.73926 4.55666 7.11432 3.3161 10.0357 3.14911L23.6375 3.23128C24.4584 3.23128 25.1887 3.72962 25.4633 4.47449C28.5687 13.5878 32.4015 19.2207 36.9676 25.5984C37.2422 26.0968 37.6979 26.3433 38.1537 26.3433C38.5188 26.3433 38.884 26.1763 39.1586 25.7628L39.4332 24.8509L39.5238 10.5209C39.5238 8.45063 38.4283 8.11929 35.8721 7.78794C34.8672 7.62094 34.2274 6.7939 34.2274 5.96422C34.2274 5.79722 34.2274 5.63287 34.3179 5.46587C35.5975 1.90325 39.6144 0.082174 45.273 0.082174L50.3854 0C54.5863 0 58.4191 1.65673 58.4191 6.54473V25.3492C58.7843 25.5984 59.1494 25.7628 59.6052 25.7628C60.3355 25.7628 61.2499 25.3492 61.9802 24.2704C66.7274 18.224 72.1144 11.0166 72.8447 7.20477C72.8447 7.03777 72.9353 6.9556 73.0288 6.79125C74.0337 4.96753 76.5899 3.72697 77.6854 3.39563C77.8695 3.31345 78.1411 3.22863 78.5063 3.22863H92.6573L93.5717 3.3108C94.9418 3.3108 95.9468 4.14049 96.4025 4.88535C97.2234 6.04639 97.0423 7.28695 97.1328 7.78529V8.36581C95.7627 15.9046 86.2683 24.3526 82.2515 29.8211C81.7023 30.4838 81.4306 31.0643 81.4306 31.6448C81.4306 32.1431 81.7052 32.6388 82.1609 33.1372L95.491 48.3791C96.2214 49.2909 96.5866 50.3671 96.5866 51.279C96.5866 54.0119 93.7558 55.5865 91.0185 55.8357L89.4672 55.9178H75.5908C75.3162 55.9178 75.1351 56 74.8605 56C73.3092 56 72.0297 55.2551 71.1182 54.4254C68.1969 51.1942 65.3661 47.8807 62.5353 44.6494C61.9861 43.9867 61.8049 43.9046 61.2557 43.5732C60.6159 45.9748 60.0697 48.4612 59.4299 50.945L59.1553 52.3526C58.6995 53.8449 57.5106 55.4168 55.3195 55.833L54.04 55.9152H45.0919C29.2991 55.9152 15.148 35.5361 5.19791 10.1074C4.9233 9.44467 4.74218 8.5328 4.74218 7.70577H4.73926ZM59.6052 29.161C57.2301 29.161 54.5834 27.9178 54.5834 25.5984V6.54473C54.5834 4.30749 53.4879 3.48045 50.4759 3.48045L45.273 3.64745C42.3517 3.64745 40.7069 4.06097 39.3397 4.89066C41.4402 5.80252 43.3566 7.04573 43.3566 10.5235V25.1027C43.082 28.0026 40.4353 29.9085 37.8791 29.9085C36.1438 29.9085 34.5926 28.9967 33.6782 27.507C29.5707 21.8741 26.1002 16.5726 23.0883 8.95163L22.2674 6.79655L10.1262 6.71438C8.48151 6.71438 8.66555 6.79655 8.66555 7.54407C8.66555 8.04241 8.75612 8.7051 8.8496 9.11862L10.766 13.7575C20.7161 37.1186 33.2254 52.4427 45.0919 52.4427H54.2211C55.5007 52.4427 55.4072 51.0351 55.6818 50.2054L57.4171 42.9158C57.7822 42.171 58.0568 41.5083 58.6966 40.9278C59.427 40.2651 60.2479 40.0159 61.0717 40.0159C62.807 40.0159 64.4488 41.2591 65.5443 42.4175L73.3034 51.3638C73.9432 52.2757 74.4894 52.44 74.8546 52.44H89.9171C91.3778 52.44 92.6573 52.0265 92.6573 51.1968C92.6573 50.9476 92.5668 50.6163 92.3827 50.3671L79.1461 35.3744C78.0506 34.1312 77.5948 32.888 77.5948 31.6474C77.5948 30.3221 78.1441 28.9967 79.0555 27.8357C82.8913 22.6163 91.1061 15.1624 93.0225 9.03115L93.2971 7.95494C93.2065 7.54142 93.2065 7.21007 93.1131 6.7939H78.7809C77.8665 7.12525 77.1362 7.62359 76.5899 8.28628L76.0407 9.86084C73.9402 15.1624 68.1881 22.452 64.0807 27.5043C62.7106 28.6653 61.1564 29.161 59.6052 29.161Z" fill="#FF9D00"/>
<path d="M4.73926 7.70577H-540.261V552.706H4.73926V7.70577ZM10.0357 3.14911L13.3281 -541.841L-3.88395 -541.945L-21.0683 -540.963L10.0357 3.14911ZM23.6375 3.23128L20.345 548.221L21.9912 548.231H23.6375V3.23128ZM25.4633 4.47449L541.336 -171.311L539.157 -177.706L536.819 -184.046L25.4633 4.47449ZM36.9676 25.5984L514.296 -237.428L498.798 -265.552L480.105 -291.662L36.9676 25.5984ZM39.1586 25.7628L493.169 327.259L537.763 260.106L561.008 182.919L39.1586 25.7628ZM39.4332 24.8509L561.283 182.007L583.926 106.818L584.422 28.295L39.4332 24.8509ZM39.5238 10.5209L584.513 13.965L584.524 12.243V10.5209H39.5238ZM35.8721 7.78794L-53.4688 545.415L-43.8536 547.013L-34.1874 548.266L35.8721 7.78794ZM34.3179 5.46587L513.406 265.272L533.202 228.768L547.239 189.686L34.3179 5.46587ZM45.273 0.082174V545.082H49.6528L54.032 545.012L45.273 0.082174ZM50.3854 0V-545H46.0056L41.6264 -544.93L50.3854 0ZM58.4191 25.3492H-486.581V313.257L-248.762 475.532L58.4191 25.3492ZM61.9802 24.2704L-366.685 -312.287L-378.557 -297.167L-389.333 -281.248L61.9802 24.2704ZM72.8447 7.20477L608.108 109.761L617.845 58.945V7.20477H72.8447ZM73.0288 6.79125L546.754 276.253L548.577 273.048L550.357 269.818L73.0288 6.79125ZM77.6854 3.39563L235.466 525.057L268.431 515.086L299.879 501.045L77.6854 3.39563ZM92.6573 3.22863L141.438 -539.584L117.097 -541.771H92.6573V3.22863ZM93.5717 3.3108L44.7906 546.123L69.1321 548.311H93.5717V3.3108ZM96.4025 4.88535L-368.487 289.319L-359.046 304.751L-348.602 319.522L96.4025 4.88535ZM97.1328 7.78529H642.133V-41.3328L633.351 -89.6594L97.1328 7.78529ZM97.1328 8.36581L633.349 105.819L642.133 57.4883V8.36581H97.1328ZM82.2515 29.8211L501.874 377.589L512.049 365.311L521.489 352.459L82.2515 29.8211ZM82.1609 33.1372L492.402 -325.648L488.424 -330.197L484.345 -334.657L82.1609 33.1372ZM95.491 48.3791L520.871 -292.321L513.498 -301.528L505.732 -310.406L95.491 48.3791ZM91.0185 55.8357L119.848 600.073L130.15 599.527L140.424 598.592L91.0185 55.8357ZM89.4672 55.9178V600.918H103.892L118.297 600.155L89.4672 55.9178ZM71.1182 54.4254L-333.155 419.923L-315.366 439.598L-295.752 457.453L71.1182 54.4254ZM62.5353 44.6494L-357.087 392.417L-352.323 398.165L-347.404 403.78L62.5353 44.6494ZM61.2557 43.5732L342.79 -423.078L-278.572 -797.951L-465.378 -96.7202L61.2557 43.5732ZM59.4299 50.945L-468.343 -85.0004L-472.383 -69.3138L-475.485 -53.4149L59.4299 50.945ZM59.1553 52.3526L580.394 211.524L588.654 184.473L594.07 156.712L59.1553 52.3526ZM55.3195 55.833L90.2472 599.713L123.895 597.552L157.021 591.26L55.3195 55.833ZM54.04 55.9152V600.915H71.5218L88.9676 599.795L54.04 55.9152ZM5.19791 10.1074L512.727 -188.486L510.755 -193.527L508.682 -198.528L5.19791 10.1074ZM4.74218 7.70577H549.742V-537.294H4.74218V7.70577ZM50.4759 3.48045V-541.52H41.7318L32.9922 -541.239L50.4759 3.48045ZM45.273 3.64745V548.647H54.0171L62.7567 548.367L45.273 3.64745ZM39.3397 4.89066L-243.406 -461.028L-1143.82 85.3921L-177.69 504.814L39.3397 4.89066ZM43.3566 25.1027L585.929 76.4812L588.357 50.8493V25.1027H43.3566ZM33.6782 27.507L498.162 -257.589L486.816 -276.074L474.038 -293.598L33.6782 27.507ZM23.0883 8.95163L-486.214 202.953L-485.008 206.118L-483.763 209.267L23.0883 8.95163ZM22.2674 6.79655L531.569 -187.205L398.834 -535.667L25.956 -538.191L22.2674 6.79655ZM10.1262 6.71438L13.8148 -538.273L11.9706 -538.286H10.1262V6.71438ZM8.8496 9.11862L-522.736 129.293L-512.53 174.436L-494.859 217.212L8.8496 9.11862ZM10.766 13.7575L-492.942 221.851L-491.81 224.593L-490.647 227.322L10.766 13.7575ZM55.6818 50.2054L573.079 221.452L580.441 199.208L585.867 176.415L55.6818 50.2054ZM57.4171 42.9158L-431.939 -196.991L-458.693 -142.419L-472.768 -83.2939L57.4171 42.9158ZM58.6966 40.9278L-307.531 -362.684L58.6966 40.9278ZM65.5443 42.4175L477.267 -314.667L469.578 -323.533L461.514 -332.059L65.5443 42.4175ZM73.3034 51.3638L519.446 -261.656L503.368 -284.573L485.026 -305.721L73.3034 51.3638ZM92.3827 50.3671L530.764 -273.434L516.656 -292.534L500.939 -310.336L92.3827 50.3671ZM79.1461 35.3744L-329.751 395.692L-329.581 395.885L-329.41 396.077L79.1461 35.3744ZM79.0555 27.8357L507.739 364.37L513.087 357.557L518.217 350.578L79.0555 27.8357ZM93.0225 9.03115L613.204 171.622L617.523 157.806L621.102 143.779L93.0225 9.03115ZM93.2971 7.95494L621.377 142.703L653.313 17.5422L625.679 -108.638L93.2971 7.95494ZM93.1131 6.7939L624.863 -112.652L529.271 -538.206H93.1131V6.7939ZM78.7809 6.7939V-538.206H-16.9202L-106.896 -505.602L78.7809 6.7939ZM76.5899 8.28628L-343.942 -338.381L-405.915 -263.203L-438.004 -171.208L76.5899 8.28628ZM76.0407 9.86084L582.722 210.607L586.899 200.063L590.634 189.355L76.0407 9.86084ZM64.0807 27.5043L416.421 443.294L455.036 410.572L486.965 371.297L64.0807 27.5043ZM549.739 7.70577C549.739 163.577 480.566 329.021 334.872 439.12C215.888 529.034 95.5332 544.151 41.1396 547.261L-21.0683 -540.963C-78.3832 -537.686 -201.386 -521.865 -322.288 -430.501C-469.9 -318.953 -540.261 -151.315 -540.261 7.70577H549.739ZM6.74322 548.139L20.345 548.221L26.9299 -541.759L13.3281 -541.841L6.74322 548.139ZM23.6375 548.231C-194.26 548.231 -403.939 415.291 -485.893 192.995L536.819 -184.046C454.317 -407.832 243.177 -541.769 23.6375 -541.769V548.231ZM-490.409 180.26C-460.978 266.631 -419.263 324.571 -406.17 342.858L480.105 -291.662C478.743 -293.564 490.649 -277.382 503.498 -254.966C518.226 -229.272 531.168 -201.151 541.336 -171.311L-490.409 180.26ZM-440.36 288.625C-348.206 455.861 -168.994 571.343 38.1537 571.343V-518.657C244.39 -518.657 422.691 -403.668 514.296 -237.428L-440.36 288.625ZM38.1537 571.343C226.945 571.343 395.179 474.817 493.169 327.259L-414.851 -275.733C-371.174 -341.505 -307.739 -405.622 -222.332 -452.219C-136.976 -498.788 -46.441 -518.657 38.1537 -518.657V571.343ZM561.008 182.919L561.283 182.007L-482.416 -132.305L-482.691 -131.393L561.008 182.919ZM584.422 28.295L584.513 13.965L-505.465 7.07673L-505.556 21.4067L584.422 28.295ZM584.524 10.5209C584.524 -33.3766 579.458 -115.454 538.943 -208.436C493.465 -312.809 419.408 -394.404 334.223 -449.39C260.32 -497.094 192.711 -515.223 163.718 -522.124C133.495 -529.318 108.751 -532.325 105.932 -532.69L-34.1874 548.266C-35.7284 548.066 -59.3768 545.226 -88.6762 538.252C-116.744 531.571 -183.601 513.715 -256.91 466.395C-341.501 411.792 -415.125 330.688 -460.318 226.97C-500.547 134.642 -505.476 53.3833 -505.476 10.5209H584.524ZM125.213 -529.839C379.32 -487.613 579.227 -267.55 579.227 5.96422H-510.773C-510.773 281.138 -309.586 502.855 -53.4688 545.415L125.213 -529.839ZM579.227 5.96422C579.227 -6.45072 587.814 128.063 513.406 265.272L-444.77 -254.34C-482.393 -184.964 -498.782 -119.014 -505.742 -68.0792C-508.999 -44.2455 -510.045 -24.7489 -510.455 -12.7334C-510.662 -6.64529 -510.727 -1.7177 -510.753 1.26715C-510.766 2.79188 -510.77 4.02628 -510.771 4.77594C-510.772 5.15898 -510.772 5.46962 -510.773 5.65948C-510.773 5.75645 -510.773 5.83534 -510.773 5.88411C-510.773 5.90899 -510.773 5.92936 -510.773 5.94221C-510.773 5.94876 -510.773 5.95418 -510.773 5.95772C-510.773 5.96102 -510.773 5.96393 -510.773 5.96422H579.227ZM547.239 189.686C491.486 344.919 378.357 442.546 274.478 492.534C180.008 537.995 94.7926 545.082 45.273 545.082V-544.918C-27.8338 -544.918 -356.18 -519.613 -478.603 -178.755L547.239 189.686ZM54.032 545.012L59.1443 544.93L41.6264 -544.93L36.514 -544.847L54.032 545.012ZM50.3854 545C-5.29408 545 -128.767 536.255 -253.888 449.779C-410.248 341.712 -486.581 169.811 -486.581 6.54473H603.419C603.419 -161.61 525.17 -336.783 365.844 -446.9C237.755 -535.427 110.266 -545 50.3854 -545V545ZM-486.581 6.54473V25.3492H603.419V6.54473H-486.581ZM-248.762 475.532C-197.111 510.776 -89.8994 570.763 59.6052 570.763V-519.237C208.198 -519.237 314.68 -459.579 365.6 -424.834L-248.762 475.532ZM59.6052 570.763C270.774 570.763 428.971 454.35 513.294 329.788L-389.333 -281.248C-306.471 -403.652 -150.103 -519.237 59.6052 -519.237V570.763ZM490.646 360.828C494.28 356.199 507.59 339.313 521.787 318.108C528.937 307.429 541.486 288.03 554.633 262.847C564.122 244.67 593.081 188.192 608.108 109.761L-462.419 -95.3514C-454.287 -137.795 -442.616 -170.944 -434.568 -191.33C-426.092 -212.803 -417.704 -229.934 -411.62 -241.588C-399.837 -264.16 -389.068 -280.664 -383.95 -288.309C-378.122 -297.013 -373.405 -303.418 -371.1 -306.506C-368.626 -309.819 -366.886 -312.032 -366.685 -312.287L490.646 360.828ZM617.845 7.20477C617.845 58.6157 610.561 110.51 595.62 161.195C581.159 210.251 562.553 247.781 549.636 271.099C538.784 290.686 527.681 307.37 530.473 303.056C530.499 303.016 531.119 302.059 531.883 300.866C532.698 299.594 533.898 297.71 535.33 295.415C538.225 290.777 542.217 284.228 546.754 276.253L-400.696 -262.671C-396.183 -270.605 -392.214 -277.115 -389.342 -281.716C-387.921 -283.993 -386.733 -285.859 -385.929 -287.114C-385.176 -288.289 -384.567 -289.23 -384.552 -289.253C-381.803 -293.5 -392.947 -276.754 -403.832 -257.105C-416.784 -233.725 -435.418 -196.133 -449.899 -147.009C-464.86 -96.2567 -472.155 -44.2897 -472.155 7.20477H617.845ZM550.357 269.818C488.102 382.794 403.168 441.68 370.008 462.994C331.447 487.78 286.585 509.595 235.466 525.057L-80.0954 -518.265C-132.309 -502.473 -178.997 -479.871 -219.361 -453.927C-254.325 -431.453 -341.04 -371.035 -404.299 -256.236L550.357 269.818ZM299.879 501.045C241.82 526.968 166.537 548.229 78.5063 548.229V-541.771C-10.2547 -541.771 -86.0813 -520.341 -144.508 -494.254L299.879 501.045ZM78.5063 548.229H92.6573V-541.771H78.5063V548.229ZM43.8762 546.041L44.7906 546.123L142.353 -539.502L141.438 -539.584L43.8762 546.041ZM93.5717 548.311C-133.857 548.311 -292.148 414.09 -368.487 289.319L561.292 -279.548C484.042 -405.809 323.741 -541.689 93.5717 -541.689V548.311ZM-348.602 319.522C-414.728 225.997 -435.846 133.887 -443.226 78.2458C-446.651 52.4259 -447.359 31.7082 -447.425 30.1309C-447.588 26.247 -447.279 34.4718 -446.799 42.0456C-446.363 48.9302 -444.786 73.8564 -439.085 105.23L633.351 -89.6594C639.029 -58.4104 640.592 -33.632 641.017 -26.9151C641.487 -19.5092 641.788 -11.472 641.617 -15.5605C641.534 -17.5468 640.803 -38.7407 637.31 -65.0781C629.792 -121.754 608.354 -215.065 541.407 -309.751L-348.602 319.522ZM-447.867 7.78529V8.36581H642.133V7.78529H-447.867ZM-439.083 -89.0874C-423.67 -173.897 -391.37 -234.443 -374.347 -263.235C-355.95 -294.352 -338.58 -316.097 -331.748 -324.478C-325.189 -332.525 -318.363 -340.162 -323.177 -334.687C-324.211 -333.512 -328.326 -328.842 -333.137 -323.12C-337.777 -317.603 -346.696 -306.826 -356.986 -292.817L521.489 352.459C512.203 365.101 504.459 374.418 501.113 378.397C499.161 380.719 497.612 382.514 496.738 383.522C496.279 384.051 495.918 384.465 495.695 384.72C495.475 384.971 495.335 385.13 495.335 385.131C493.473 387.248 503.511 376.003 513.118 364.218C522.996 352.099 543.248 326.486 563.936 291.495C583.25 258.827 617.251 194.398 633.349 105.819L-439.083 -89.0874ZM-337.371 -317.947C-374.872 -272.697 -463.569 -151.119 -463.569 31.6448H626.431C626.431 213.247 538.276 333.664 501.874 377.589L-337.371 -317.947ZM-463.569 31.6448C-463.569 234.71 -354.607 363.115 -320.024 400.932L484.345 -334.657C518.017 -297.837 626.431 -170.424 626.431 31.6448H-463.569ZM-328.08 391.923L-314.75 407.165L505.732 -310.406L492.402 -325.648L-328.08 391.923ZM-329.889 389.079C-399.512 302.152 -448.413 185.092 -448.413 51.279H641.587C641.587 -84.3581 591.955 -203.57 520.871 -292.321L-329.889 389.079ZM-448.413 51.279C-448.413 -161.433 -330.187 -310.016 -226.51 -385.7C-132.179 -454.562 -33.9356 -480.043 41.6124 -486.92L140.424 598.592C218.71 591.465 319.737 565.072 416.168 494.678C521.945 417.46 641.587 266.724 641.587 51.279H-448.413ZM62.1891 -488.401L60.6378 -488.319L118.297 600.155L119.848 600.073L62.1891 -488.401ZM89.4672 -489.082H75.5908V600.918H89.4672V-489.082ZM75.5908 -489.082C68.7653 -489.082 62.1142 -488.954 55.6472 -488.718C49.1817 -488.482 42.9738 -488.14 37.0412 -487.721C31.1115 -487.301 25.5166 -486.808 20.2871 -486.276C15.0625 -485.745 10.2372 -485.178 5.86319 -484.615C1.49659 -484.053 -2.42482 -483.495 -5.81478 -482.985C-9.19292 -482.476 -12.1072 -482.005 -14.4119 -481.62C-15.569 -481.427 -16.5997 -481.251 -17.4754 -481.1C-18.3487 -480.949 -19.0992 -480.817 -19.685 -480.713C-20.2655 -480.611 -20.7364 -480.526 -21.0254 -480.474C-21.1727 -480.448 -21.2925 -480.426 -21.3665 -480.413C-21.4043 -480.406 -21.4351 -480.401 -21.4545 -480.397C-21.4644 -480.395 -21.4726 -480.394 -21.4779 -480.393C-21.4828 -480.392 -21.4871 -480.391 -21.4874 -480.391C-21.5002 -480.389 -21.4486 -480.398 -21.3879 -480.409C-21.321 -480.421 -21.2083 -480.442 -21.0681 -480.467C-20.7934 -480.516 -20.3368 -480.598 -19.7705 -480.698C-19.1991 -480.799 -18.4628 -480.928 -17.6039 -481.077C-16.7425 -481.226 -15.7262 -481.399 -14.5835 -481.59C-12.3077 -481.97 -9.42243 -482.436 -6.0736 -482.941C-2.71294 -483.447 1.17889 -484.001 5.51555 -484.559C9.85961 -485.117 14.6546 -485.681 19.8485 -486.209C25.0472 -486.738 30.6109 -487.228 36.5088 -487.645C42.4096 -488.063 48.5852 -488.403 55.0178 -488.638C61.4517 -488.873 68.0693 -489 74.8605 -489V601C81.6859 601 88.3371 600.872 94.804 600.636C101.27 600.4 107.477 600.058 113.41 599.638C119.34 599.219 124.935 598.726 130.164 598.194C135.389 597.663 140.214 597.096 144.588 596.533C148.955 595.971 152.876 595.413 156.266 594.903C159.644 594.394 162.558 593.922 164.863 593.538C166.02 593.345 167.051 593.169 167.927 593.017C168.8 592.867 169.55 592.735 170.136 592.631C170.717 592.528 171.188 592.444 171.477 592.392C171.624 592.366 171.744 592.344 171.818 592.331C171.856 592.324 171.886 592.319 171.906 592.315C171.916 592.313 171.924 592.312 171.929 592.311C171.934 592.31 171.938 592.309 171.939 592.309C171.951 592.307 171.9 592.316 171.839 592.327C171.772 592.339 171.66 592.359 171.519 592.385C171.245 592.434 170.788 592.516 170.222 592.616C169.65 592.717 168.914 592.846 168.055 592.995C167.194 593.143 166.177 593.317 165.035 593.508C162.759 593.887 159.874 594.354 156.525 594.858C153.164 595.365 149.272 595.919 144.936 596.476C140.592 597.035 135.797 597.599 130.603 598.127C125.404 598.656 119.84 599.146 113.942 599.563C108.042 599.981 101.866 600.321 95.4335 600.556C88.9995 600.791 82.3819 600.918 75.5908 600.918V-489.082ZM74.8605 -489C254.361 -489 378.078 -403.137 437.988 -348.603L-295.752 457.453C-234.019 513.647 -107.743 601 74.8605 601V-489ZM475.391 -311.072C476.354 -310.008 477.051 -309.221 477.392 -308.835C477.721 -308.462 477.835 -308.33 477.562 -308.644C477.431 -308.794 477.252 -309 476.971 -309.323C476.831 -309.484 476.684 -309.652 476.507 -309.857C476.339 -310.049 476.135 -310.284 475.929 -310.521C475.139 -311.43 473.882 -312.875 472.474 -314.481L-347.404 403.78C-347.422 403.759 -347.377 403.811 -347.239 403.969C-347.096 404.133 -346.907 404.351 -346.61 404.692C-346.173 405.194 -345.022 406.519 -343.976 407.719C-341.781 410.236 -337.86 414.719 -333.155 419.923L475.391 -311.072ZM482.157 -303.118C471.614 -315.839 443.625 -348.863 400.541 -383.031C379.858 -399.434 362.099 -411.053 351.771 -417.549C345.996 -421.181 335.635 -427.395 342.79 -423.078L-220.279 510.224C-212.849 514.707 -222.981 508.628 -228.551 505.125C-238.674 498.758 -256.249 487.263 -276.75 471.005C-319.469 437.127 -347.093 404.476 -357.087 392.417L482.157 -303.118ZM-465.378 -96.7202C-466.572 -92.2352 -467.528 -88.4459 -468.187 -85.7893C-468.823 -83.2241 -469.345 -81.0565 -469.533 -80.2735C-469.846 -78.9731 -469.695 -79.6014 -469.587 -80.0446C-469.413 -80.757 -468.968 -82.5743 -468.343 -85.0004L587.202 186.89C588.147 183.222 588.901 180.163 589.377 178.211C589.619 177.218 589.824 176.371 589.958 175.814C590.026 175.532 590.087 175.278 590.128 175.107C590.178 174.9 590.195 174.827 590.219 174.73C590.26 174.557 590.225 174.703 590.159 174.975C590.089 175.265 589.952 175.826 589.768 176.567C589.412 178.005 588.764 180.582 587.889 183.867L-465.378 -96.7202ZM-475.485 -53.4149L-475.76 -52.0073L594.07 156.712L594.345 155.305L-475.485 -53.4149ZM-462.083 -106.819C-418.232 -250.419 -288.388 -433.626 -46.3815 -479.594L157.021 591.26C403.409 544.46 535.631 358.109 580.394 211.524L-462.083 -106.819ZM20.3919 -488.047L19.1123 -487.964L88.9676 599.795L90.2472 599.713L20.3919 -488.047ZM54.04 -489.085H45.0919V600.915H54.04V-489.085ZM45.0919 -489.085C281.525 -489.085 413.371 -341.01 445.098 -302.155C487.728 -249.947 506.576 -204.206 512.727 -188.486L-502.331 208.7C-486.23 249.85 -455.332 318.495 -399.19 387.249C-353.952 442.651 -207.134 600.915 45.0919 600.915V-489.085ZM508.682 -198.528C525.064 -158.994 534.473 -123.023 540.071 -93.8995C545.802 -64.0826 549.742 -29.9497 549.742 7.70577H-540.258C-540.258 75.2087 -527.792 147.538 -498.286 218.742L508.682 -198.528ZM4.74218 -537.294H4.73926V552.706H4.74218V-537.294ZM59.6052 -515.839C142.518 -515.839 245.553 -496.266 345.616 -433.557C453.82 -365.746 599.583 -213.056 599.583 25.5984H-490.417C-490.417 266.572 -343.33 421.044 -233.209 490.056C-131.229 553.966 -25.6829 574.161 59.6052 574.161V-515.839ZM599.583 25.5984V6.54473H-490.417V25.5984H599.583ZM599.583 6.54473C599.583 -77.6142 576.527 -285.336 380.075 -432.264C228.815 -545.393 71.1709 -541.52 50.4759 -541.52V548.48C32.7929 548.48 -122.797 552.767 -272.756 440.611C-467.908 294.656 -490.417 88.4664 -490.417 6.54473H599.583ZM32.9922 -541.239L27.7893 -541.072L62.7567 548.367L67.9597 548.2L32.9922 -541.239ZM45.273 -541.353C-9.54831 -541.353 -123.547 -533.765 -243.406 -461.028L322.085 470.809C269.551 502.69 213.801 524.21 158.124 536.382C108.097 547.32 67.3073 548.647 45.273 548.647V-541.353ZM-177.69 504.814C-194.649 497.451 -288.082 458.289 -370.486 362.79C-467.719 250.106 -501.643 118.868 -501.643 10.5235H588.357C588.357 -101.298 553.474 -234.898 454.758 -349.3C370.87 -446.518 275.429 -486.758 256.37 -495.032L-177.69 504.814ZM-501.643 10.5235V25.1027H588.357V10.5235H-501.643ZM-499.216 -26.2758C-468.69 -348.643 -192.567 -515.091 37.8791 -515.091V574.909C273.438 574.909 554.854 404.649 585.929 76.4812L-499.216 -26.2758ZM37.8791 -515.091C235.888 -515.091 405.446 -408.644 498.162 -257.589L-430.806 312.603C-336.261 466.637 -163.601 574.909 37.8791 574.909V-515.091ZM474.038 -293.598C476.541 -290.165 486.317 -276.71 497.494 -257.746C509.486 -237.4 520.541 -215.147 529.94 -191.364L-483.763 209.267C-456.798 277.497 -423.852 325.065 -406.681 348.612L474.038 -293.598ZM532.39 -185.05L531.569 -187.205L-487.035 200.798L-486.214 202.953L532.39 -185.05ZM25.956 -538.191L13.8148 -538.273L6.43762 551.702L18.5788 551.784L25.956 -538.191ZM10.1262 -538.286C8.2705 -538.286 3.00414 -538.282 -3.6637 -538.119C-9.7103 -537.972 -23.0765 -537.568 -39.9519 -536.04C-45.3238 -535.553 -178.253 -529.307 -307.992 -436.638C-388.799 -378.92 -451.364 -300.946 -490.381 -212.021C-525.022 -133.068 -532.483 -64.7617 -534.817 -33.5791C-536.105 -16.3803 -536.311 -2.53871 -536.337 5.35476C-536.364 13.2097 -536.207 19.3712 -536.173 20.7336C-536.018 27.044 -536.334 16.2997 -536.334 7.54407H553.666C553.666 -1.39847 553.343 -12.3089 553.495 -6.14596C553.527 -4.85739 553.683 1.23497 553.656 9.02509C553.63 16.8537 553.425 30.6349 552.142 47.7772C549.817 78.8471 542.374 147.057 507.769 225.927C468.788 314.769 406.278 392.675 325.55 450.336C195.971 542.891 63.304 549.07 58.3602 549.518C41.6988 551.026 28.5881 551.418 22.8462 551.558C16.4831 551.713 11.5708 551.714 10.1262 551.714V-538.286ZM-536.334 7.54407C-536.334 56.0991 -529.89 97.6487 -522.736 129.293L540.435 -111.056C545.145 -90.2195 547.931 -72.1416 549.663 -58.0337C551.314 -44.5833 553.666 -21.4317 553.666 7.54407H-536.334ZM-494.859 217.212L-492.942 221.851L514.474 -194.336L512.558 -198.975L-494.859 217.212ZM-490.647 227.322C-472.896 268.999 -440.63 334.231 -384.538 398.915C-341.531 448.511 -197.794 597.443 45.0919 597.443V-492.557C276.112 -492.557 407.66 -351.287 438.959 -315.194C483.342 -264.012 504.378 -218.123 512.179 -199.807L-490.647 227.322ZM45.0919 597.443H54.2211V-492.557H45.0919V597.443ZM54.2211 597.443C162.306 597.443 290.52 564.502 402.013 472.415C503.078 388.942 547.268 291.944 565.609 243.047C575.414 216.907 581.278 195.132 584.489 182.151C587.634 169.441 589.648 159.217 589.885 158.035C593.153 141.73 586.099 182.113 573.079 221.452L-461.715 -121.041C-474.873 -81.2878 -482.019 -40.4174 -478.849 -56.2246C-478.662 -57.158 -476.7 -67.1308 -473.617 -79.5951C-470.466 -92.3303 -464.672 -113.865 -454.953 -139.776C-436.782 -188.218 -392.826 -284.813 -292.112 -367.996C-180.969 -459.792 -53.2242 -492.557 54.2211 -492.557V597.443ZM585.867 176.415L587.602 169.126L-472.768 -83.2939L-474.503 -76.0043L585.867 176.415ZM546.774 282.822C547.725 280.881 548.628 279.004 548.358 279.566C548.342 279.598 548.079 280.143 547.739 280.843C547.381 281.577 546.818 282.732 546.117 284.148C543.58 289.273 537.249 301.915 528.104 317.511C507.788 352.162 475.165 398.952 424.924 444.54L-307.531 -362.684C-358.412 -316.516 -391.492 -269.104 -412.197 -233.791C-421.535 -217.863 -428.044 -204.879 -430.755 -199.403C-432.125 -196.635 -433.222 -194.355 -433.256 -194.285C-433.615 -193.543 -432.8 -195.236 -431.939 -196.991L546.774 282.822ZM424.924 444.54C314.154 545.049 179.684 585.016 61.0717 585.016V-504.984C-59.1887 -504.984 -195.3 -464.519 -307.531 -362.684L424.924 444.54ZM61.0717 585.016C-67.3965 585.016 -163.33 540.023 -215.509 508.919C-269.366 476.815 -307.126 441.531 -330.426 416.894L461.514 -332.059C439.238 -355.614 300.179 -504.984 61.0717 -504.984V585.016ZM-346.178 399.502L-338.419 408.449L485.026 -305.721L477.267 -314.667L-346.178 399.502ZM-372.839 364.384C-297.199 472.193 -145.496 597.44 74.8546 597.44V-492.56C165.04 -492.56 261.85 -469.948 351.623 -416.853C434.614 -367.769 487.833 -306.714 519.446 -261.656L-372.839 364.384ZM74.8546 597.44H89.9171V-492.56H74.8546V597.44ZM89.9171 597.44C131.235 597.44 209.728 593.014 299.509 556.011C366.779 528.286 637.657 390.429 637.657 51.1968H-452.343C-452.343 -287.205 -182.104 -424.441 -115.839 -451.752C-27.0635 -488.341 50.0597 -492.56 89.9171 -492.56V597.44ZM637.657 51.1968C637.657 -55.1669 606.156 -171.363 530.764 -273.434L-345.999 374.168C-387.636 317.797 -412.466 261.474 -427.305 214.292C-441.948 167.733 -452.343 112.684 -452.343 51.1968H637.657ZM500.939 -310.336L487.703 -325.329L-329.41 396.077L-316.174 411.07L500.939 -310.336ZM488.043 -324.943C562.698 -240.222 622.595 -116.819 622.595 31.6474H-467.405C-467.405 182.595 -406.597 308.484 -329.751 395.692L488.043 -324.943ZM622.595 31.6474C622.595 181.434 562.016 295.231 507.739 364.37L-349.628 -308.699C-405.728 -237.237 -467.405 -120.79 -467.405 31.6474H622.595ZM518.217 350.578C510.017 361.735 503.144 370.134 499.539 374.465C495.802 378.954 492.963 382.19 492.478 382.743C488.199 387.626 497.499 377.094 503.092 370.473C510.046 362.242 526.073 342.972 543.461 316.997C558.987 293.805 590.877 243.055 613.204 171.622L-427.159 -153.56C-405.79 -221.928 -375.645 -269.446 -362.319 -289.353C-347.13 -312.043 -333.756 -327.973 -329.575 -332.922C-326.755 -336.261 -320.347 -343.568 -327.305 -335.628C-328.782 -333.942 -343.901 -316.956 -360.106 -294.907L518.217 350.578ZM621.102 143.779L621.377 142.703L-434.782 -126.793L-435.057 -125.717L621.102 143.779ZM625.679 -108.638C628.944 -93.7329 631.029 -81.1826 632.346 -72.3007C632.986 -67.9842 633.451 -64.4871 633.726 -62.3558C633.865 -61.282 633.973 -60.4246 634.032 -59.9442C634.083 -59.5395 634.133 -59.1333 634.108 -59.3351C634.103 -59.376 634.038 -59.8998 633.957 -60.5454C633.872 -61.2298 633.739 -62.275 633.572 -63.5473C633.241 -66.0781 632.72 -69.9249 632.011 -74.5999C631.294 -79.3296 630.368 -85.024 629.185 -91.4644C627.999 -97.9293 626.576 -105.024 624.863 -112.652L-438.637 126.24C-440.327 118.716 -441.729 111.723 -442.897 105.357C-444.061 99.016 -444.972 93.4191 -445.674 88.7854C-446.368 84.2064 -446.876 80.4544 -447.195 78.0176C-447.356 76.7922 -447.482 75.7939 -447.562 75.1562C-447.603 74.8323 -447.636 74.5677 -447.657 74.3944C-447.678 74.2283 -447.694 74.1003 -447.696 74.0859C-447.704 74.0204 -447.688 74.1466 -447.677 74.233C-447.663 74.3505 -447.636 74.5663 -447.603 74.835C-447.537 75.3621 -447.424 76.2662 -447.279 77.3869C-446.991 79.6121 -446.514 83.2037 -445.859 87.6159C-445.196 92.0893 -444.327 97.5702 -443.209 103.817C-442.086 110.092 -440.73 117.038 -439.085 124.548L625.679 -108.638ZM93.1131 -538.206H78.7809V551.794H93.1131V-538.206ZM-106.896 -505.602C-187.586 -476.362 -273.749 -423.529 -343.942 -338.381L497.121 354.954C428.021 438.777 343.319 490.613 264.458 519.189L-106.896 -505.602ZM-438.004 -171.208L-438.553 -169.634L590.634 189.355L591.184 187.781L-438.004 -171.208ZM-430.641 -190.885C-416.736 -225.981 -402.084 -251.811 -394.277 -264.907C-385.603 -279.459 -378.018 -290.476 -373.489 -296.851C-368.7 -303.592 -364.816 -308.66 -362.651 -311.44C-360.428 -314.296 -358.85 -316.232 -358.804 -316.289L486.965 371.297C490.324 367.166 502.115 352.703 515.116 334.403C522.847 323.52 556.551 276.663 582.722 210.607L-430.641 -190.885ZM-288.26 -388.286C-186.153 -474.811 -61.1331 -515.839 59.6052 -515.839V574.161C183.446 574.161 311.574 532.142 416.421 443.294L-288.26 -388.286Z" fill="#FF9D00" mask="url(#path-1-inside-1_78_51)"/>
</g>
<defs>
<filter id="filter0_d_78_51" x="0.739258" y="0" width="100.394" height="64" filterUnits="userSpaceOnUse" color-interpolation-filters="sRGB">
<feFlood flood-opacity="0" result="BackgroundImageFix"/>
<feColorMatrix in="SourceAlpha" type="matrix" values="0 0 0 0 0 0 0 0 0 0 0 0 0 0 0 0 0 0 127 0" result="hardAlpha"/>
<feOffset dy="4"/>
<feGaussianBlur stdDeviation="2"/>
<feComposite in2="hardAlpha" operator="out"/>
<feColorMatrix type="matrix" values="0 0 0 0 0 0 0 0 0 0 0 0 0 0 0 0 0 0 0.25 0"/>
<feBlend mode="normal" in2="BackgroundImageFix" result="effect1_dropShadow_78_51"/>
<feBlend mode="normal" in="SourceGraphic" in2="effect1_dropShadow_78_51" result="shape"/>
</filter>
</defs>
</svg>
