<svg width="99" height="67" viewBox="0 0 99 67" fill="none" xmlns="http://www.w3.org/2000/svg">
<g filter="url(#filter0_d_77_39)">
<path d="M86.7558 3.71918C84.3332 2.12195 77.5825 0 49.2968 0C18.9854 0 14.4867 2.43679 13.0421 3.2354C5.36086 7.46395 4.63157 26.1776 4.56451 29.971C4.65672 34.9828 5.53969 51.6589 13.0365 55.7825C14.4755 56.5786 18.949 59 49.294 59C77.5992 59 84.3416 56.8883 86.753 55.2962C93.2998 50.9806 94.0515 36.1244 94.071 29.9044C94.0542 24.9029 93.4814 8.15761 86.753 3.71918H86.7558ZM83.4922 51.1444C82.517 51.7869 76.9258 53.8807 49.294 53.8807C22.5815 53.8807 16.9763 51.9814 15.9173 51.3953C13.2209 49.9132 10.3736 42.0474 10.1529 29.9556C10.3736 17.892 13.2573 9.08677 15.9257 7.62009C16.9875 7.03393 22.6122 5.11931 49.2968 5.11931C76.9063 5.11931 82.5114 7.22846 83.495 7.87349C85.8896 9.4528 88.4491 17.7666 88.4882 29.9198C88.4491 42.265 85.8728 49.5728 83.495 51.1419L83.4922 51.1444ZM67.5178 27.4856L42.3756 13.3512C41.5122 12.8725 40.4336 12.8623 39.559 13.3153C38.6789 13.7709 38.1368 14.6233 38.1368 15.5448V43.8161C38.1368 44.7376 38.6789 45.5925 39.559 46.0456C39.9838 46.2657 40.4588 46.3758 40.931 46.3758C41.4284 46.3758 41.9313 46.2529 42.3728 46.0098L67.515 31.8702C68.3532 31.4069 68.8646 30.5751 68.8646 29.6792C68.8646 28.7833 68.3532 27.9489 67.515 27.4856H67.5178ZM43.728 39.283V20.0779L60.6692 29.6792L43.728 39.283Z" fill="#FF9D00"/>
<path d="M77.594 2.25201C82.8848 2.95105 85.0358 3.81928 86.0961 4.4838L86.2024 4.55392C87.6572 5.51361 88.8546 7.19527 89.8174 9.38261C90.7748 11.5577 91.46 14.1405 91.9454 16.7814C92.9155 22.0597 93.0626 27.4258 93.071 29.9046C93.0612 32.9887 92.869 38.1814 91.8792 43.1179C91.3842 45.5867 90.6963 47.9574 89.7516 49.9553C88.8039 51.9597 87.6305 53.52 86.2026 54.4613L86.202 54.4617C85.1882 55.131 83.0824 56.0328 77.6033 56.7537C72.1414 57.4723 63.4295 58 49.294 58C19.1057 58 14.7551 55.591 13.542 54.9194L13.5206 54.9075L13.5185 54.9063C11.8845 54.0076 10.5417 52.3831 9.45296 50.2585C8.36762 48.1406 7.57469 45.6031 7.00039 42.9948C5.85465 37.7912 5.61115 32.4585 5.56468 29.9706C5.59875 28.0794 5.79862 22.5404 6.92808 16.9649C7.49483 14.1672 8.28789 11.4005 9.38884 9.09409C10.496 6.77467 11.8648 5.02503 13.5244 4.11143L13.5259 4.11057C13.5332 4.10657 13.5405 4.10251 13.548 4.09838C14.7681 3.42322 19.1472 1 49.2968 1C63.4224 1 72.1313 1.53027 77.594 2.25201ZM84.0424 51.9795L84.1087 51.9358L84.1164 51.9287C84.886 51.3947 85.5662 50.493 86.1583 49.3647C86.7789 48.1821 87.3489 46.6613 87.8352 44.8283C88.8083 41.1604 89.4685 36.1589 89.4882 29.923L89.4882 29.9166C89.4684 23.7757 88.8123 18.5771 87.8453 14.69C87.3622 12.7481 86.796 11.1111 86.1798 9.83938C85.5791 8.59976 84.8731 7.58449 84.0456 7.0387L84.0434 7.03728C83.6662 6.78993 83.0119 6.50374 81.8738 6.204C80.7212 5.90043 79.0181 5.56933 76.5019 5.26189C71.47 4.64707 63.1215 4.11931 49.2968 4.11931C35.9355 4.11931 27.8168 4.59841 22.8902 5.15624C18.0032 5.70959 16.1592 6.34895 15.4424 6.74463L15.9256 7.61984L15.444 6.74374C14.5155 7.25409 13.7209 8.29401 13.0461 9.56272C12.3528 10.8663 11.7116 12.5545 11.158 14.5462C10.0496 18.5334 9.26472 23.8361 9.15308 29.9373L9.15274 29.9556L9.15307 29.9739C9.26469 36.0882 10.0404 41.1692 11.1473 44.936C11.7004 46.8181 12.343 48.3957 13.0423 49.6173C13.7286 50.8162 14.5251 51.7706 15.4344 52.2709C16.152 52.6676 17.9927 53.3025 22.8738 53.8515C27.7984 54.4054 35.9189 54.8807 49.294 54.8807C63.1297 54.8807 71.48 54.3568 76.5098 53.7462C79.0249 53.4409 80.7262 53.112 81.8767 52.8103C83.0119 52.5126 83.6656 52.2277 84.0424 51.9795ZM67.0277 28.3573L67.0359 28.3427L67.0312 28.3608C67.5759 28.6618 67.8646 29.1749 67.8646 29.6792C67.8646 30.1824 67.5769 30.6934 67.0312 30.995L67.0312 30.995L67.0248 30.9986L41.8903 45.1338C41.8892 45.1345 41.8881 45.1351 41.887 45.1357C41.6005 45.2927 41.2659 45.3758 40.931 45.3758C40.6119 45.3758 40.2956 45.301 40.0192 45.1578L40.0167 45.1565C39.4422 44.8608 39.1368 44.3333 39.1368 43.8161V15.5448C39.1368 15.0291 39.441 14.5024 40.0187 14.2034L40.019 14.2032C40.5986 13.903 41.3212 13.9111 41.8884 14.2244C41.8892 14.2249 41.8899 14.2253 41.8907 14.2257L67.0277 28.3573ZM42.728 39.283V40.9994L44.2211 40.1529L61.1624 30.5491L62.6971 29.6791L61.1623 28.8092L44.221 19.2079L42.728 18.3617V20.0779V39.283Z" stroke="#FF9D00" stroke-width="2"/>
</g>
<defs>
<filter id="filter0_d_77_39" x="0.564514" y="0" width="97.5065" height="67" filterUnits="userSpaceOnUse" color-interpolation-filters="sRGB">
<feFlood flood-opacity="0" result="BackgroundImageFix"/>
<feColorMatrix in="SourceAlpha" type="matrix" values="0 0 0 0 0 0 0 0 0 0 0 0 0 0 0 0 0 0 127 0" result="hardAlpha"/>
<feOffset dy="4"/>
<feGaussianBlur stdDeviation="2"/>
<feComposite in2="hardAlpha" operator="out"/>
<feColorMatrix type="matrix" values="0 0 0 0 0 0 0 0 0 0 0 0 0 0 0 0 0 0 0.25 0"/>
<feBlend mode="normal" in2="BackgroundImageFix" result="effect1_dropShadow_77_39"/>
<feBlend mode="normal" in="SourceGraphic" in2="effect1_dropShadow_77_39" result="shape"/>
</filter>
</defs>
</svg>
